<svg xmlns="http://www.w3.org/2000/svg" xmlns:xlink="http://www.w3.org/1999/xlink" fill="none" version="1.1" width="48" height="48" viewBox="0 0 48 48"><defs><clipPath id="master_svg0_0_382"><rect x="0" y="0" width="48" height="48" rx="24"/></clipPath></defs><g clip-path="url(#master_svg0_0_382)"><rect x="0" y="0" width="48" height="48" rx="24" fill="#EEEEEE" fill-opacity="1"/><g><path d="M18.119999999999997,10C18.119999999999997,10,29.88,10,29.88,10C34.36,10,38,13.64,38,18.119999999999997C38,18.119999999999997,38,29.88,38,29.88C38,32.0336,37.1445,34.0989,35.621700000000004,35.621700000000004C34.0989,37.1445,32.0336,38,29.88,38C29.88,38,18.119999999999997,38,18.119999999999997,38C13.64,38,10,34.36,10,29.88C10,29.88,10,18.119999999999997,10,18.119999999999997C10,15.96644,10.855498,13.90109,12.37829,12.37829C13.90109,10.855498,15.96644,10.000000000000004,18.119999999999997,10ZM17.84,12.8C16.50331,12.8,15.22136,13.331,14.27618,14.27618C13.331,15.22136,12.8,16.50331,12.8,17.84C12.8,17.84,12.8,30.16,12.8,30.16C12.8,32.946,15.054,35.2,17.84,35.2C17.84,35.2,30.16,35.2,30.16,35.2C31.4967,35.2,32.7786,34.669,33.7238,33.7238C34.669,32.7786,35.2,31.4967,35.2,30.16C35.2,30.16,35.2,17.84,35.2,17.84C35.2,15.054,32.946,12.8,30.16,12.8C30.16,12.8,17.84,12.8,17.84,12.8ZM31.35,14.9C31.8141,14.9,32.2592,15.08437,32.5874,15.41256C32.9156,15.74075,33.1,16.18587,33.1,16.65C33.1,17.11413,32.9156,17.55925,32.5874,17.887439999999998C32.2592,18.21562,31.8141,18.4,31.35,18.4C30.8859,18.4,30.4408,18.21562,30.1126,17.887439999999998C29.7844,17.55925,29.6,17.11413,29.6,16.65C29.6,16.18587,29.7844,15.74075,30.1126,15.41256C30.4408,15.08437,30.8859,14.9,31.35,14.9ZM24,17C25.8565,17,27.637,17.7375,28.9497,19.05025C30.2625,20.363,31,22.1435,31,24C31,25.8565,30.2625,27.637,28.9497,28.9497C27.637,30.2625,25.8565,31,24,31C22.1435,31,20.363,30.2625,19.05025,28.9497C17.7375,27.637,17,25.8565,17,24C17,22.1435,17.7375,20.363,19.05025,19.05025C20.363,17.7375,22.1435,17,24,17ZM24,19.8C22.8861,19.8,21.8178,20.2425,21.0302,21.0302C20.2425,21.8178,19.8,22.8861,19.8,24C19.8,25.1139,20.2425,26.1822,21.0302,26.9698C21.8178,27.7575,22.8861,28.2,24,28.2C25.1139,28.2,26.1822,27.7575,26.9698,26.9698C27.7575,26.1822,28.2,25.1139,28.2,24C28.2,22.8861,27.7575,21.8178,26.9698,21.0302C26.1822,20.2425,25.1139,19.8,24,19.8Z" fill="#676767" fill-opacity="1"/></g></g></svg>