<svg xmlns="http://www.w3.org/2000/svg" xmlns:xlink="http://www.w3.org/1999/xlink" fill="none" version="1.1" width="100" height="32" viewBox="0 0 100 32"><defs><clipPath id="master_svg0_0_4196"><rect x="0" y="0" width="100" height="32" rx="0"/></clipPath></defs><g clip-path="url(#master_svg0_0_4196)"><g><g><path d="M21.280029296875,31C21.280029296875,31,21.280029296875,1.363636,21.280029296875,1.363636C21.280029296875,1.363636,26.702709296875,1.363636,26.702709296875,1.363636C26.702709296875,1.363636,41.222629296875,19.1818,41.222629296875,19.1818C41.222629296875,19.1818,41.222629296875,1,41.222629296875,1C41.222629296875,1,47.715529296875005,1,47.715529296875005,1C47.715529296875005,1,47.715529296875005,30.6364,47.715529296875005,30.6364C47.715529296875005,30.6364,42.292929296875,30.6364,42.292929296875,30.6364C42.292929296875,30.6364,27.772969296875,12.8182,27.772969296875,12.8182C27.772969296875,12.8182,27.772969296875,31,27.772969296875,31C27.772969296875,31,21.280029296875,31,21.280029296875,31ZM52.844529296874995,31C52.844529296874995,31,52.844529296874995,1.363636,52.844529296874995,1.363636C52.844529296874995,1.363636,58.267129296875,1.363636,58.267129296875,1.363636C58.267129296875,1.363636,72.78712929687501,19.1818,72.78712929687501,19.1818C72.78712929687501,19.1818,72.78712929687501,1,72.78712929687501,1C72.78712929687501,1,79.280029296875,1,79.280029296875,1C79.280029296875,1,79.280029296875,30.6364,79.280029296875,30.6364C79.280029296875,30.6364,73.85732929687501,30.6364,73.85732929687501,30.6364C73.85732929687501,30.6364,59.337429296875,12.8182,59.337429296875,12.8182C59.337429296875,12.8182,59.337429296875,31,59.337429296875,31C59.337429296875,31,52.844529296874995,31,52.844529296874995,31Z" fill="#9BB9EB" fill-opacity="1"/></g><g><path d="M0,23.7377C0,23.7377,0,8.468385,0,8.468385C0,8.468385,2.70716,8.468385,2.70716,8.468385C2.70716,8.468385,9.95593,17.64871,9.95593,17.64871C9.95593,17.64871,9.95593,8.281031,9.95593,8.281031C9.95593,8.281031,13.1974,8.281031,13.1974,8.281031C13.1974,8.281031,13.1974,23.5504,13.1974,23.5504C13.1974,23.5504,10.4902,23.5504,10.4902,23.5504C10.4902,23.5504,3.24147,14.37002,3.24147,14.37002C3.24147,14.37002,3.24147,23.7377,3.24147,23.7377C3.24147,23.7377,0,23.7377,0,23.7377ZM20.5667,24C17.3786,24,15.1345,21.6019,15.1345,18.2482C15.1345,14.913350000000001,17.3786,12.49649,20.5667,12.49649C23.7547,12.49649,25.9988,14.89461,25.9988,18.2482C25.9988,18.5667,25.981,18.9227,25.9276,19.316200000000002C25.9276,19.316200000000002,18.287,19.316200000000002,18.287,19.316200000000002C18.5363,20.5902,19.3734,21.3208,20.5667,21.3208C21.475,21.3208,22.223,20.9836,22.4902,20.459C22.4902,20.459,25.6782,20.459,25.6782,20.459C25.1439,22.5574,23.0957,24,20.5667,24ZM18.2691,17.16159C18.2691,17.16159,22.8998,17.16159,22.8998,17.16159C22.6327,15.85012,21.8134,15.138169999999999,20.5667,15.138169999999999C19.32,15.138169999999999,18.5363,15.85012,18.2691,17.16159ZM27.8612,23.7377C27.8612,23.7377,27.8612,12.75878,27.8612,12.75878C27.8612,12.75878,31.0315,12.75878,31.0315,12.75878C31.0315,12.75878,31.0315,13.8829,31.0315,13.8829C31.6548,13.00234,32.6166,12.49649,33.9523,12.49649C34.5401,12.49649,34.9141,12.53396,35.3237,12.68384C35.3237,12.68384,35.3593,15.81265,35.3593,15.81265C34.9141,15.56909,34.362,15.437940000000001,33.7386,15.437940000000001C32.0466,15.437940000000001,31.0315,16.44965,31.0315,18.1171C31.0315,18.1171,31.0315,23.7377,31.0315,23.7377C31.0315,23.7377,27.8612,23.7377,27.8612,23.7377ZM41.0297,24C38.0376,24,35.9538,21.5831,35.9538,18.2482C35.9538,14.913350000000001,38.0376,12.49649,41.0297,12.49649C42.4011,12.49649,43.3984,13.00234,44.0218,13.8829C44.0218,13.8829,44.0218,8,44.0218,8C44.0218,8,47.192,8,47.192,8C47.192,8,47.192,23.7377,47.192,23.7377C47.192,23.7377,44.0218,23.7377,44.0218,23.7377C44.0218,23.7377,44.0218,22.613599999999998,44.0218,22.613599999999998C43.3984,23.4941,42.4011,24,41.0297,24ZM41.5284,21.1522C43.0779,21.1522,44.0752,19.9344,44.0752,18.2482C44.0752,16.562060000000002,43.0779,15.34426,41.5284,15.34426C40.0145,15.34426,39.0527,16.562060000000002,39.0527,18.2482C39.0527,19.9344,40.0145,21.1522,41.5284,21.1522ZM54.6657,23.7377C54.6657,23.7377,54.6657,8.468385,54.6657,8.468385C54.6657,8.468385,57.3728,8.468385,57.3728,8.468385C57.3728,8.468385,64.6216,17.64871,64.6216,17.64871C64.6216,17.64871,64.6216,8.281031,64.6216,8.281031C64.6216,8.281031,67.8631,8.281031,67.8631,8.281031C67.8631,8.281031,67.8631,23.5504,67.8631,23.5504C67.8631,23.5504,65.1559,23.5504,65.1559,23.5504C65.1559,23.5504,57.9071,14.37002,57.9071,14.37002C57.9071,14.37002,57.9071,23.7377,57.9071,23.7377C57.9071,23.7377,54.6657,23.7377,54.6657,23.7377ZM75.2323,24C72.0443,24,69.8002,21.6019,69.8002,18.2482C69.8002,14.913350000000001,72.0443,12.49649,75.2323,12.49649C78.4204,12.49649,80.6645,14.89461,80.6645,18.2482C80.6645,18.5667,80.6467,18.9227,80.5932,19.316200000000002C80.5932,19.316200000000002,72.9526,19.316200000000002,72.9526,19.316200000000002C73.202,20.5902,74.039,21.3208,75.2323,21.3208C76.1407,21.3208,76.8887,20.9836,77.1558,20.459C77.1558,20.459,80.3439,20.459,80.3439,20.459C79.8096,22.5574,77.7614,24,75.2323,24ZM72.9348,17.16159C72.9348,17.16159,77.5655,17.16159,77.5655,17.16159C77.2983,15.85012,76.479,15.138169999999999,75.2323,15.138169999999999C73.9856,15.138169999999999,73.202,15.85012,72.9348,17.16159ZM86.8904,12.49649C89.4907,12.49649,91.5389,13.8829,91.6635,16.05621C91.6635,16.05621,88.6002,16.05621,88.6002,16.05621C88.4933,15.381730000000001,87.7631,14.96955,86.837,14.96955C85.8752,14.96955,85.1806,15.32553,85.1806,15.81265C85.1806,16.35597,85.8752,16.618270000000003,87.6562,16.91803C90.7374,17.40515,91.8417,18.473100000000002,91.8417,20.365299999999998C91.8417,22.613599999999998,89.5976,24,86.9438,24C84.2189,24,82.1529,22.5761,82.046,20.2717C82.046,20.2717,85.1094,20.2717,85.1094,20.2717C85.2162,20.9836,85.9999,21.451999999999998,86.9973,21.451999999999998C88.0124,21.451999999999998,88.7605,21.058500000000002,88.7605,20.5527C88.7605,20.028100000000002,88.0481,19.6909,86.2492,19.4098C83.7558,19.0164,82.1172,18.2108,82.1172,15.98127C82.1172,13.84543,84.2367,12.49649,86.8904,12.49649ZM100,12.75878C100,12.75878,100,15.62529,100,15.62529C100,15.62529,97.934,15.62529,97.934,15.62529C97.934,15.62529,97.934,23.7377,97.934,23.7377C97.934,23.7377,94.7638,23.7377,94.7638,23.7377C94.7638,23.7377,94.7638,15.62529,94.7638,15.62529C94.7638,15.62529,92.6978,15.62529,92.6978,15.62529C92.6978,15.62529,92.6978,12.75878,92.6978,12.75878C92.6978,12.75878,94.7638,12.75878,94.7638,12.75878C94.7638,12.75878,94.7638,9.49883,94.7638,9.49883C94.7638,9.49883,97.934,9.49883,97.934,9.49883C97.934,9.49883,97.934,12.75878,97.934,12.75878C97.934,12.75878,100,12.75878,100,12.75878Z" fill="#333333" fill-opacity="1"/></g></g></g></svg>